<svg width="48" height="46" viewBox="0 0 48 46" fill="none" xmlns="http://www.w3.org/2000/svg">
<path d="M45.3 27.78L24 43.26L2.70004 27.78C2.41449 27.57 2.20268 27.2751 2.09491 26.9374C1.98714 26.5997 1.98894 26.2366 2.10004 25.9L4.54004 18.34L9.42004 3.32001C9.46738 3.19763 9.54272 3.08803 9.64004 3.00001C9.79852 2.85526 10.0054 2.77499 10.22 2.77499C10.4347 2.77499 10.6416 2.85526 10.8 3.00001C10.9028 3.09934 10.9785 3.22325 11.02 3.36001L15.9 18.34H32.1L36.98 3.32001C37.0274 3.19763 37.1027 3.08803 37.2 3.00001C37.3585 2.85526 37.5654 2.77499 37.78 2.77499C37.9947 2.77499 38.2016 2.85526 38.36 3.00001C38.4628 3.09934 38.5385 3.22325 38.58 3.36001L43.46 18.38L46 25.9C46.1011 26.247 46.0876 26.6173 45.9615 26.956C45.8354 27.2946 45.6034 27.5836 45.3 27.78Z" stroke="#1E1E1E" stroke-width="4" stroke-linecap="round" stroke-linejoin="round"/>
</svg>
