<svg width="702" height="99" viewBox="0 0 702 99" fill="none" xmlns="http://www.w3.org/2000/svg">
<path d="M31.5 18C28.98 18 27 16.02 27 13.5C27 10.98 28.98 9 31.5 9C34.02 9 36 10.98 36 13.5C36 16.02 34.02 18 31.5 18ZM22.5 27C19.98 27 18 25.02 18 22.5C18 19.98 19.98 18 22.5 18C25.02 18 27 19.98 27 22.5C27 25.02 25.02 27 22.5 27ZM31.5 27C28.98 27 27 25.02 27 22.5C27 19.98 28.98 18 31.5 18C34.02 18 36 19.98 36 22.5C36 25.02 34.02 27 31.5 27ZM13.5 36C10.98 36 9 34.02 9 31.5C9 28.98 10.98 27 13.5 27C16.02 27 18 28.98 18 31.5C18 34.02 16.02 36 13.5 36ZM31.5 36C28.98 36 27 34.02 27 31.5C27 28.98 28.98 27 31.5 27C34.02 27 36 28.98 36 31.5C36 34.02 34.02 36 31.5 36ZM58.5 36C55.98 36 54 34.02 54 31.5C54 28.98 55.98 27 58.5 27C61.02 27 63 28.98 63 31.5C63 34.02 61.02 36 58.5 36ZM49.5 36C46.98 36 45 34.02 45 31.5C45 28.98 46.98 27 49.5 27C52.02 27 54 28.98 54 31.5C54 34.02 52.02 36 49.5 36ZM40.5 36C37.98 36 36 34.02 36 31.5C36 28.98 37.98 27 40.5 27C43.02 27 45 28.98 45 31.5C45 34.02 43.02 36 40.5 36ZM22.5 36C19.98 36 18 34.02 18 31.5C18 28.98 19.98 27 22.5 27C25.02 27 27 28.98 27 31.5C27 34.02 25.02 36 22.5 36ZM4.5 45C1.98 45 0 43.02 0 40.5C0 37.98 1.98 36 4.5 36C7.02 36 9 37.98 9 40.5C9 43.02 7.02 45 4.5 45ZM31.5 45C28.98 45 27 43.02 27 40.5C27 37.98 28.98 36 31.5 36C34.02 36 36 37.98 36 40.5C36 43.02 34.02 45 31.5 45ZM49.5 45C46.98 45 45 43.02 45 40.5C45 37.98 46.98 36 49.5 36C52.02 36 54 37.98 54 40.5C54 43.02 52.02 45 49.5 45ZM40.5 45C37.98 45 36 43.02 36 40.5C36 37.98 37.98 36 40.5 36C43.02 36 45 37.98 45 40.5C45 43.02 43.02 45 40.5 45ZM13.5 45C10.98 45 9 43.02 9 40.5C9 37.98 10.98 36 13.5 36C16.02 36 18 37.98 18 40.5C18 43.02 16.02 45 13.5 45ZM22.5 45C19.98 45 18 43.02 18 40.5C18 37.98 19.98 36 22.5 36C25.02 36 27 37.98 27 40.5C27 43.02 25.02 45 22.5 45ZM31.5 54C28.98 54 27 52.02 27 49.5C27 46.98 28.98 45 31.5 45C34.02 45 36 46.98 36 49.5C36 52.02 34.02 54 31.5 54ZM22.5 54C19.98 54 18 52.02 18 49.5C18 46.98 19.98 45 22.5 45C25.02 45 27 46.98 27 49.5C27 52.02 25.02 54 22.5 54ZM31.5 63C28.98 63 27 61.02 27 58.5C27 55.98 28.98 54 31.5 54C34.02 54 36 55.98 36 58.5C36 61.02 34.02 63 31.5 63ZM22.5 63C19.98 63 18 61.02 18 58.5C18 55.98 19.98 54 22.5 54C25.02 54 27 55.98 27 58.5C27 61.02 25.02 63 22.5 63ZM22.5 72C19.98 72 18 70.02 18 67.5C18 64.98 19.98 63 22.5 63C25.02 63 27 64.98 27 67.5C27 70.02 25.02 72 22.5 72ZM31.5 72C28.98 72 27 70.02 27 67.5C27 64.98 28.98 63 31.5 63C34.02 63 36 64.98 36 67.5C36 70.02 34.02 72 31.5 72ZM22.5 81C19.98 81 18 79.02 18 76.5C18 73.98 19.98 72 22.5 72C25.02 72 27 73.98 27 76.5C27 79.02 25.02 81 22.5 81ZM31.5 81C28.98 81 27 79.02 27 76.5C27 73.98 28.98 72 31.5 72C34.02 72 36 73.98 36 76.5C36 79.02 34.02 81 31.5 81ZM22.5 90C19.98 90 18 88.02 18 85.5C18 82.98 19.98 81 22.5 81C25.02 81 27 82.98 27 85.5C27 88.02 25.02 90 22.5 90ZM31.5 90C28.98 90 27 88.02 27 85.5C27 82.98 28.98 81 31.5 81C34.02 81 36 82.98 36 85.5C36 88.02 34.02 90 31.5 90ZM40.5 90C37.98 90 36 88.02 36 85.5C36 82.98 37.98 81 40.5 81C43.02 81 45 82.98 45 85.5C45 88.02 43.02 90 40.5 90ZM49.5 90C46.98 90 45 88.02 45 85.5C45 82.98 46.98 81 49.5 81C52.02 81 54 82.98 54 85.5C54 88.02 52.02 90 49.5 90ZM58.5 90C55.98 90 54 88.02 54 85.5C54 82.98 55.98 81 58.5 81C61.02 81 63 82.98 63 85.5C63 88.02 61.02 90 58.5 90ZM31.5 99C28.98 99 27 97.02 27 94.5C27 91.98 28.98 90 31.5 90C34.02 90 36 91.98 36 94.5C36 97.02 34.02 99 31.5 99ZM40.5 99C37.98 99 36 97.02 36 94.5C36 91.98 37.98 90 40.5 90C43.02 90 45 91.98 45 94.5C45 97.02 43.02 99 40.5 99ZM49.5 99C46.98 99 45 97.02 45 94.5C45 91.98 46.98 90 49.5 90C52.02 90 54 91.98 54 94.5C54 97.02 52.02 99 49.5 99ZM76.5 9C73.98 9 72 7.02001 72 4.5C72 1.98 73.98 0 76.5 0C79.02 0 81 1.98 81 4.5C81 7.02001 79.02 9 76.5 9ZM85.5 9C82.98 9 81 7.02001 81 4.5C81 1.98 82.98 0 85.5 0C88.02 0 90 1.98 90 4.5C90 7.02001 88.02 9 85.5 9ZM76.5 18C73.98 18 72 16.02 72 13.5C72 10.98 73.98 9 76.5 9C79.02 9 81 10.98 81 13.5C81 16.02 79.02 18 76.5 18ZM85.5 18C82.98 18 81 16.02 81 13.5C81 10.98 82.98 9 85.5 9C88.02 9 90 10.98 90 13.5C90 16.02 88.02 18 85.5 18ZM76.5 36C73.98 36 72 34.02 72 31.5C72 28.98 73.98 27 76.5 27C79.02 27 81 28.98 81 31.5C81 34.02 79.02 36 76.5 36ZM85.5 36C82.98 36 81 34.02 81 31.5C81 28.98 82.98 27 85.5 27C88.02 27 90 28.98 90 31.5C90 34.02 88.02 36 85.5 36ZM76.5 45C73.98 45 72 43.02 72 40.5C72 37.98 73.98 36 76.5 36C79.02 36 81 37.98 81 40.5C81 43.02 79.02 45 76.5 45ZM85.5 45C82.98 45 81 43.02 81 40.5C81 37.98 82.98 36 85.5 36C88.02 36 90 37.98 90 40.5C90 43.02 88.02 45 85.5 45ZM76.5 54C73.98 54 72 52.02 72 49.5C72 46.98 73.98 45 76.5 45C79.02 45 81 46.98 81 49.5C81 52.02 79.02 54 76.5 54ZM85.5 54C82.98 54 81 52.02 81 49.5C81 46.98 82.98 45 85.5 45C88.02 45 90 46.98 90 49.5C90 52.02 88.02 54 85.5 54ZM76.5 63C73.98 63 72 61.02 72 58.5C72 55.98 73.98 54 76.5 54C79.02 54 81 55.98 81 58.5C81 61.02 79.02 63 76.5 63ZM85.5 63C82.98 63 81 61.02 81 58.5C81 55.98 82.98 54 85.5 54C88.02 54 90 55.98 90 58.5C90 61.02 88.02 63 85.5 63ZM76.5 72C73.98 72 72 70.02 72 67.5C72 64.98 73.98 63 76.5 63C79.02 63 81 64.98 81 67.5C81 70.02 79.02 72 76.5 72ZM85.5 72C82.98 72 81 70.02 81 67.5C81 64.98 82.98 63 85.5 63C88.02 63 90 64.98 90 67.5C90 70.02 88.02 72 85.5 72ZM76.5 81C73.98 81 72 79.02 72 76.5C72 73.98 73.98 72 76.5 72C79.02 72 81 73.98 81 76.5C81 79.02 79.02 81 76.5 81ZM85.5 81C82.98 81 81 79.02 81 76.5C81 73.98 82.98 72 85.5 72C88.02 72 90 73.98 90 76.5C90 79.02 88.02 81 85.5 81ZM76.5 90C73.98 90 72 88.02 72 85.5C72 82.98 73.98 81 76.5 81C79.02 81 81 82.98 81 85.5C81 88.02 79.02 90 76.5 90ZM85.5 90C82.98 90 81 88.02 81 85.5C81 82.98 82.98 81 85.5 81C88.02 81 90 82.98 90 85.5C90 88.02 88.02 90 85.5 90ZM85.5 99C82.98 99 81 97.02 81 94.5C81 91.98 82.98 90 85.5 90C88.02 90 90 91.98 90 94.5C90 97.02 88.02 99 85.5 99ZM76.5 99C73.98 99 72 97.02 72 94.5C72 91.98 73.98 90 76.5 90C79.02 90 81 91.98 81 94.5C81 97.02 79.02 99 76.5 99ZM130.5 36C127.98 36 126 34.02 126 31.5C126 28.98 127.98 27 130.5 27C133.02 27 135 28.98 135 31.5C135 34.02 133.02 36 130.5 36ZM139.5 36C136.98 36 135 34.02 135 31.5C135 28.98 136.98 27 139.5 27C142.02 27 144 28.98 144 31.5C144 34.02 142.02 36 139.5 36ZM148.5 36C145.98 36 144 34.02 144 31.5C144 28.98 145.98 27 148.5 27C151.02 27 153 28.98 153 31.5C153 34.02 151.02 36 148.5 36ZM157.5 36C154.98 36 153 34.02 153 31.5C153 28.98 154.98 27 157.5 27C160.02 27 162 28.98 162 31.5C162 34.02 160.02 36 157.5 36ZM157.5 45C154.98 45 153 43.02 153 40.5C153 37.98 154.98 36 157.5 36C160.02 36 162 37.98 162 40.5C162 43.02 160.02 45 157.5 45ZM166.5 45C163.98 45 162 43.02 162 40.5C162 37.98 163.98 36 166.5 36C169.02 36 171 37.98 171 40.5C171 43.02 169.02 45 166.5 45ZM148.5 45C145.98 45 144 43.02 144 40.5C144 37.98 145.98 36 148.5 36C151.02 36 153 37.98 153 40.5C153 43.02 151.02 45 148.5 45ZM139.5 45C136.98 45 135 43.02 135 40.5C135 37.98 136.98 36 139.5 36C142.02 36 144 37.98 144 40.5C144 43.02 142.02 45 139.5 45ZM130.5 45C127.98 45 126 43.02 126 40.5C126 37.98 127.98 36 130.5 36C133.02 36 135 37.98 135 40.5C135 43.02 133.02 45 130.5 45ZM121.5 45C118.98 45 117 43.02 117 40.5C117 37.98 118.98 36 121.5 36C124.02 36 126 37.98 126 40.5C126 43.02 124.02 45 121.5 45ZM121.5 54C118.98 54 117 52.02 117 49.5C117 46.98 118.98 45 121.5 45C124.02 45 126 46.98 126 49.5C126 52.02 124.02 54 121.5 54ZM112.5 54C109.98 54 108 52.02 108 49.5C108 46.98 109.98 45 112.5 45C115.02 45 117 46.98 117 49.5C117 52.02 115.02 54 112.5 54ZM166.5 54C163.98 54 162 52.02 162 49.5C162 46.98 163.98 45 166.5 45C169.02 45 171 46.98 171 49.5C171 52.02 169.02 54 166.5 54ZM157.5 54C154.98 54 153 52.02 153 49.5C153 46.98 154.98 45 157.5 45C160.02 45 162 46.98 162 49.5C162 52.02 160.02 54 157.5 54ZM130.5 54C127.98 54 126 52.02 126 49.5C126 46.98 127.98 45 130.5 45C133.02 45 135 46.98 135 49.5C135 52.02 133.02 54 130.5 54ZM121.5 63C118.98 63 117 61.02 117 58.5C117 55.98 118.98 54 121.5 54C124.02 54 126 55.98 126 58.5C126 61.02 124.02 63 121.5 63ZM112.5 63C109.98 63 108 61.02 108 58.5C108 55.98 109.98 54 112.5 54C115.02 54 117 55.98 117 58.5C117 61.02 115.02 63 112.5 63ZM121.5 72C118.98 72 117 70.02 117 67.5C117 64.98 118.98 63 121.5 63C124.02 63 126 64.98 126 67.5C126 70.02 124.02 72 121.5 72ZM112.5 72C109.98 72 108 70.02 108 67.5C108 64.98 109.98 63 112.5 63C115.02 63 117 64.98 117 67.5C117 70.02 115.02 72 112.5 72ZM166.5 81C163.98 81 162 79.02 162 76.5C162 73.98 163.98 72 166.5 72C169.02 72 171 73.98 171 76.5C171 79.02 169.02 81 166.5 81ZM121.5 81C118.98 81 117 79.02 117 76.5C117 73.98 118.98 72 121.5 72C124.02 72 126 73.98 126 76.5C126 79.02 124.02 81 121.5 81ZM112.5 81C109.98 81 108 79.02 108 76.5C108 73.98 109.98 72 112.5 72C115.02 72 117 73.98 117 76.5C117 79.02 115.02 81 112.5 81ZM157.5 81C154.98 81 153 79.02 153 76.5C153 73.98 154.98 72 157.5 72C160.02 72 162 73.98 162 76.5C162 79.02 160.02 81 157.5 81ZM130.5 81C127.98 81 126 79.02 126 76.5C126 73.98 127.98 72 130.5 72C133.02 72 135 73.98 135 76.5C135 79.02 133.02 81 130.5 81ZM130.5 90C127.98 90 126 88.02 126 85.5C126 82.98 127.98 81 130.5 81C133.02 81 135 82.98 135 85.5C135 88.02 133.02 90 130.5 90ZM157.5 90C154.98 90 153 88.02 153 85.5C153 82.98 154.98 81 157.5 81C160.02 81 162 82.98 162 85.5C162 88.02 160.02 90 157.5 90ZM139.5 90C136.98 90 135 88.02 135 85.5C135 82.98 136.98 81 139.5 81C142.02 81 144 82.98 144 85.5C144 88.02 142.02 90 139.5 90ZM166.5 90C163.98 90 162 88.02 162 85.5C162 82.98 163.98 81 166.5 81C169.02 81 171 82.98 171 85.5C171 88.02 169.02 90 166.5 90ZM148.5 90C145.98 90 144 88.02 144 85.5C144 82.98 145.98 81 148.5 81C151.02 81 153 82.98 153 85.5C153 88.02 151.02 90 148.5 90ZM121.5 90C118.98 90 117 88.02 117 85.5C117 82.98 118.98 81 121.5 81C124.02 81 126 82.98 126 85.5C126 88.02 124.02 90 121.5 90ZM130.5 99C127.98 99 126 97.02 126 94.5C126 91.98 127.98 90 130.5 90C133.02 90 135 91.98 135 94.5C135 97.02 133.02 99 130.5 99ZM139.5 99C136.98 99 135 97.02 135 94.5C135 91.98 136.98 90 139.5 90C142.02 90 144 91.98 144 94.5C144 97.02 142.02 99 139.5 99ZM157.5 99C154.98 99 153 97.02 153 94.5C153 91.98 154.98 90 157.5 90C160.02 90 162 91.98 162 94.5C162 97.02 160.02 99 157.5 99ZM148.5 99C145.98 99 144 97.02 144 94.5C144 91.98 145.98 90 148.5 90C151.02 90 153 91.98 153 94.5C153 97.02 151.02 99 148.5 99ZM247.5 18C244.98 18 243 16.02 243 13.5C243 10.98 244.98 9 247.5 9C250.02 9 252 10.98 252 13.5C252 16.02 250.02 18 247.5 18ZM238.5 27C235.98 27 234 25.02 234 22.5C234 19.98 235.98 18 238.5 18C241.02 18 243 19.98 243 22.5C243 25.02 241.02 27 238.5 27ZM247.5 27C244.98 27 243 25.02 243 22.5C243 19.98 244.98 18 247.5 18C250.02 18 252 19.98 252 22.5C252 25.02 250.02 27 247.5 27ZM229.5 36C226.98 36 225 34.02 225 31.5C225 28.98 226.98 27 229.5 27C232.02 27 234 28.98 234 31.5C234 34.02 232.02 36 229.5 36ZM247.5 36C244.98 36 243 34.02 243 31.5C243 28.98 244.98 27 247.5 27C250.02 27 252 28.98 252 31.5C252 34.02 250.02 36 247.5 36ZM274.5 36C271.98 36 270 34.02 270 31.5C270 28.98 271.98 27 274.5 27C277.02 27 279 28.98 279 31.5C279 34.02 277.02 36 274.5 36ZM265.5 36C262.98 36 261 34.02 261 31.5C261 28.98 262.98 27 265.5 27C268.02 27 270 28.98 270 31.5C270 34.02 268.02 36 265.5 36ZM256.5 36C253.98 36 252 34.02 252 31.5C252 28.98 253.98 27 256.5 27C259.02 27 261 28.98 261 31.5C261 34.02 259.02 36 256.5 36ZM238.5 36C235.98 36 234 34.02 234 31.5C234 28.98 235.98 27 238.5 27C241.02 27 243 28.98 243 31.5C243 34.02 241.02 36 238.5 36ZM220.5 45C217.98 45 216 43.02 216 40.5C216 37.98 217.98 36 220.5 36C223.02 36 225 37.98 225 40.5C225 43.02 223.02 45 220.5 45ZM247.5 45C244.98 45 243 43.02 243 40.5C243 37.98 244.98 36 247.5 36C250.02 36 252 37.98 252 40.5C252 43.02 250.02 45 247.5 45ZM265.5 45C262.98 45 261 43.02 261 40.5C261 37.98 262.98 36 265.5 36C268.02 36 270 37.98 270 40.5C270 43.02 268.02 45 265.5 45ZM256.5 45C253.98 45 252 43.02 252 40.5C252 37.98 253.98 36 256.5 36C259.02 36 261 37.98 261 40.5C261 43.02 259.02 45 256.5 45ZM229.5 45C226.98 45 225 43.02 225 40.5C225 37.98 226.98 36 229.5 36C232.02 36 234 37.98 234 40.5C234 43.02 232.02 45 229.5 45ZM238.5 45C235.98 45 234 43.02 234 40.5C234 37.98 235.98 36 238.5 36C241.02 36 243 37.98 243 40.5C243 43.02 241.02 45 238.5 45ZM247.5 54C244.98 54 243 52.02 243 49.5C243 46.98 244.98 45 247.5 45C250.02 45 252 46.98 252 49.5C252 52.02 250.02 54 247.5 54ZM238.5 54C235.98 54 234 52.02 234 49.5C234 46.98 235.98 45 238.5 45C241.02 45 243 46.98 243 49.5C243 52.02 241.02 54 238.5 54ZM247.5 63C244.98 63 243 61.02 243 58.5C243 55.98 244.98 54 247.5 54C250.02 54 252 55.98 252 58.5C252 61.02 250.02 63 247.5 63ZM238.5 63C235.98 63 234 61.02 234 58.5C234 55.98 235.98 54 238.5 54C241.02 54 243 55.98 243 58.5C243 61.02 241.02 63 238.5 63ZM238.5 72C235.98 72 234 70.02 234 67.5C234 64.98 235.98 63 238.5 63C241.02 63 243 64.98 243 67.5C243 70.02 241.02 72 238.5 72ZM247.5 72C244.98 72 243 70.02 243 67.5C243 64.98 244.98 63 247.5 63C250.02 63 252 64.98 252 67.5C252 70.02 250.02 72 247.5 72ZM238.5 81C235.98 81 234 79.02 234 76.5C234 73.98 235.98 72 238.5 72C241.02 72 243 73.98 243 76.5C243 79.02 241.02 81 238.5 81ZM247.5 81C244.98 81 243 79.02 243 76.5C243 73.98 244.98 72 247.5 72C250.02 72 252 73.98 252 76.5C252 79.02 250.02 81 247.5 81ZM238.5 90C235.98 90 234 88.02 234 85.5C234 82.98 235.98 81 238.5 81C241.02 81 243 82.98 243 85.5C243 88.02 241.02 90 238.5 90ZM247.5 90C244.98 90 243 88.02 243 85.5C243 82.98 244.98 81 247.5 81C250.02 81 252 82.98 252 85.5C252 88.02 250.02 90 247.5 90ZM256.5 90C253.98 90 252 88.02 252 85.5C252 82.98 253.98 81 256.5 81C259.02 81 261 82.98 261 85.5C261 88.02 259.02 90 256.5 90ZM265.5 90C262.98 90 261 88.02 261 85.5C261 82.98 262.98 81 265.5 81C268.02 81 270 82.98 270 85.5C270 88.02 268.02 90 265.5 90ZM274.5 90C271.98 90 270 88.02 270 85.5C270 82.98 271.98 81 274.5 81C277.02 81 279 82.98 279 85.5C279 88.02 277.02 90 274.5 90ZM247.5 99C244.98 99 243 97.02 243 94.5C243 91.98 244.98 90 247.5 90C250.02 90 252 91.98 252 94.5C252 97.02 250.02 99 247.5 99ZM256.5 99C253.98 99 252 97.02 252 94.5C252 91.98 253.98 90 256.5 90C259.02 90 261 91.98 261 94.5C261 97.02 259.02 99 256.5 99ZM265.5 99C262.98 99 261 97.02 261 94.5C261 91.98 262.98 90 265.5 90C268.02 90 270 91.98 270 94.5C270 97.02 268.02 99 265.5 99ZM301.5 36C298.98 36 297 34.02 297 31.5C297 28.98 298.98 27 301.5 27C304.02 27 306 28.98 306 31.5C306 34.02 304.02 36 301.5 36ZM310.5 36C307.98 36 306 34.02 306 31.5C306 28.98 307.98 27 310.5 27C313.02 27 315 28.98 315 31.5C315 34.02 313.02 36 310.5 36ZM319.5 36C316.98 36 315 34.02 315 31.5C315 28.98 316.98 27 319.5 27C322.02 27 324 28.98 324 31.5C324 34.02 322.02 36 319.5 36ZM328.5 36C325.98 36 324 34.02 324 31.5C324 28.98 325.98 27 328.5 27C331.02 27 333 28.98 333 31.5C333 34.02 331.02 36 328.5 36ZM337.5 36C334.98 36 333 34.02 333 31.5C333 28.98 334.98 27 337.5 27C340.02 27 342 28.98 342 31.5C342 34.02 340.02 36 337.5 36ZM301.5 45C298.98 45 297 43.02 297 40.5C297 37.98 298.98 36 301.5 36C304.02 36 306 37.98 306 40.5C306 43.02 304.02 45 301.5 45ZM292.5 45C289.98 45 288 43.02 288 40.5C288 37.98 289.98 36 292.5 36C295.02 36 297 37.98 297 40.5C297 43.02 295.02 45 292.5 45ZM337.5 45C334.98 45 333 43.02 333 40.5C333 37.98 334.98 36 337.5 36C340.02 36 342 37.98 342 40.5C342 43.02 340.02 45 337.5 45ZM346.5 45C343.98 45 342 43.02 342 40.5C342 37.98 343.98 36 346.5 36C349.02 36 351 37.98 351 40.5C351 43.02 349.02 45 346.5 45ZM310.5 45C307.98 45 306 43.02 306 40.5C306 37.98 307.98 36 310.5 36C313.02 36 315 37.98 315 40.5C315 43.02 313.02 45 310.5 45ZM328.5 45C325.98 45 324 43.02 324 40.5C324 37.98 325.98 36 328.5 36C331.02 36 333 37.98 333 40.5C333 43.02 331.02 45 328.5 45ZM319.5 45C316.98 45 315 43.02 315 40.5C315 37.98 316.98 36 319.5 36C322.02 36 324 37.98 324 40.5C324 43.02 322.02 45 319.5 45ZM337.5 54C334.98 54 333 52.02 333 49.5C333 46.98 334.98 45 337.5 45C340.02 45 342 46.98 342 49.5C342 52.02 340.02 54 337.5 54ZM346.5 54C343.98 54 342 52.02 342 49.5C342 46.98 343.98 45 346.5 45C349.02 45 351 46.98 351 49.5C351 52.02 349.02 54 346.5 54ZM310.5 63C307.98 63 306 61.02 306 58.5C306 55.98 307.98 54 310.5 54C313.02 54 315 55.98 315 58.5C315 61.02 313.02 63 310.5 63ZM337.5 63C334.98 63 333 61.02 333 58.5C333 55.98 334.98 54 337.5 54C340.02 54 342 55.98 342 58.5C342 61.02 340.02 63 337.5 63ZM346.5 63C343.98 63 342 61.02 342 58.5C342 55.98 343.98 54 346.5 54C349.02 54 351 55.98 351 58.5C351 61.02 349.02 63 346.5 63ZM328.5 63C325.98 63 324 61.02 324 58.5C324 55.98 325.98 54 328.5 54C331.02 54 333 55.98 333 58.5C333 61.02 331.02 63 328.5 63ZM319.5 63C316.98 63 315 61.02 315 58.5C315 55.98 316.98 54 319.5 54C322.02 54 324 55.98 324 58.5C324 61.02 322.02 63 319.5 63ZM310.5 72C307.98 72 306 70.02 306 67.5C306 64.98 307.98 63 310.5 63C313.02 63 315 64.98 315 67.5C315 70.02 313.02 72 310.5 72ZM319.5 72C316.98 72 315 70.02 315 67.5C315 64.98 316.98 63 319.5 63C322.02 63 324 64.98 324 67.5C324 70.02 322.02 72 319.5 72ZM328.5 72C325.98 72 324 70.02 324 67.5C324 64.98 325.98 63 328.5 63C331.02 63 333 64.98 333 67.5C333 70.02 331.02 72 328.5 72ZM346.5 72C343.98 72 342 70.02 342 67.5C342 64.98 343.98 63 346.5 63C349.02 63 351 64.98 351 67.5C351 70.02 349.02 72 346.5 72ZM337.5 72C334.98 72 333 70.02 333 67.5C333 64.98 334.98 63 337.5 63C340.02 63 342 64.98 342 67.5C342 70.02 340.02 72 337.5 72ZM301.5 72C298.98 72 297 70.02 297 67.5C297 64.98 298.98 63 301.5 63C304.02 63 306 64.98 306 67.5C306 70.02 304.02 72 301.5 72ZM292.5 72C289.98 72 288 70.02 288 67.5C288 64.98 289.98 63 292.5 63C295.02 63 297 64.98 297 67.5C297 70.02 295.02 72 292.5 72ZM337.5 81C334.98 81 333 79.02 333 76.5C333 73.98 334.98 72 337.5 72C340.02 72 342 73.98 342 76.5C342 79.02 340.02 81 337.5 81ZM346.5 81C343.98 81 342 79.02 342 76.5C342 73.98 343.98 72 346.5 72C349.02 72 351 73.98 351 76.5C351 79.02 349.02 81 346.5 81ZM301.5 81C298.98 81 297 79.02 297 76.5C297 73.98 298.98 72 301.5 72C304.02 72 306 73.98 306 76.5C306 79.02 304.02 81 301.5 81ZM292.5 81C289.98 81 288 79.02 288 76.5C288 73.98 289.98 72 292.5 72C295.02 72 297 73.98 297 76.5C297 79.02 295.02 81 292.5 81ZM319.5 90C316.98 90 315 88.02 315 85.5C315 82.98 316.98 81 319.5 81C322.02 81 324 82.98 324 85.5C324 88.02 322.02 90 319.5 90ZM292.5 90C289.98 90 288 88.02 288 85.5C288 82.98 289.98 81 292.5 81C295.02 81 297 82.98 297 85.5C297 88.02 295.02 90 292.5 90ZM310.5 90C307.98 90 306 88.02 306 85.5C306 82.98 307.98 81 310.5 81C313.02 81 315 82.98 315 85.5C315 88.02 313.02 90 310.5 90ZM346.5 90C343.98 90 342 88.02 342 85.5C342 82.98 343.98 81 346.5 81C349.02 81 351 82.98 351 85.5C351 88.02 349.02 90 346.5 90ZM337.5 90C334.98 90 333 88.02 333 85.5C333 82.98 334.98 81 337.5 81C340.02 81 342 82.98 342 85.5C342 88.02 340.02 90 337.5 90ZM301.5 90C298.98 90 297 88.02 297 85.5C297 82.98 298.98 81 301.5 81C304.02 81 306 82.98 306 85.5C306 88.02 304.02 90 301.5 90ZM328.5 90C325.98 90 324 88.02 324 85.5C324 82.98 325.98 81 328.5 81C331.02 81 333 82.98 333 85.5C333 88.02 331.02 90 328.5 90ZM319.5 99C316.98 99 315 97.02 315 94.5C315 91.98 316.98 90 319.5 90C322.02 90 324 91.98 324 94.5C324 97.02 322.02 99 319.5 99ZM337.5 99C334.98 99 333 97.02 333 94.5C333 91.98 334.98 90 337.5 90C340.02 90 342 91.98 342 94.5C342 97.02 340.02 99 337.5 99ZM346.5 99C343.98 99 342 97.02 342 94.5C342 91.98 343.98 90 346.5 90C349.02 90 351 91.98 351 94.5C351 97.02 349.02 99 346.5 99ZM310.5 99C307.98 99 306 97.02 306 94.5C306 91.98 307.98 90 310.5 90C313.02 90 315 91.98 315 94.5C315 97.02 313.02 99 310.5 99ZM301.5 99C298.98 99 297 97.02 297 94.5C297 91.98 298.98 90 301.5 90C304.02 90 306 91.98 306 94.5C306 97.02 304.02 99 301.5 99ZM391.5 36C388.98 36 387 34.02 387 31.5C387 28.98 388.98 27 391.5 27C394.02 27 396 28.98 396 31.5C396 34.02 394.02 36 391.5 36ZM400.5 36C397.98 36 396 34.02 396 31.5C396 28.98 397.98 27 400.5 27C403.02 27 405 28.98 405 31.5C405 34.02 403.02 36 400.5 36ZM409.5 36C406.98 36 405 34.02 405 31.5C405 28.98 406.98 27 409.5 27C412.02 27 414 28.98 414 31.5C414 34.02 412.02 36 409.5 36ZM418.5 36C415.98 36 414 34.02 414 31.5C414 28.98 415.98 27 418.5 27C421.02 27 423 28.98 423 31.5C423 34.02 421.02 36 418.5 36ZM418.5 45C415.98 45 414 43.02 414 40.5C414 37.98 415.98 36 418.5 36C421.02 36 423 37.98 423 40.5C423 43.02 421.02 45 418.5 45ZM427.5 45C424.98 45 423 43.02 423 40.5C423 37.98 424.98 36 427.5 36C430.02 36 432 37.98 432 40.5C432 43.02 430.02 45 427.5 45ZM409.5 45C406.98 45 405 43.02 405 40.5C405 37.98 406.98 36 409.5 36C412.02 36 414 37.98 414 40.5C414 43.02 412.02 45 409.5 45ZM400.5 45C397.98 45 396 43.02 396 40.5C396 37.98 397.98 36 400.5 36C403.02 36 405 37.98 405 40.5C405 43.02 403.02 45 400.5 45ZM391.5 45C388.98 45 387 43.02 387 40.5C387 37.98 388.98 36 391.5 36C394.02 36 396 37.98 396 40.5C396 43.02 394.02 45 391.5 45ZM382.5 45C379.98 45 378 43.02 378 40.5C378 37.98 379.98 36 382.5 36C385.02 36 387 37.98 387 40.5C387 43.02 385.02 45 382.5 45ZM382.5 54C379.98 54 378 52.02 378 49.5C378 46.98 379.98 45 382.5 45C385.02 45 387 46.98 387 49.5C387 52.02 385.02 54 382.5 54ZM373.5 54C370.98 54 369 52.02 369 49.5C369 46.98 370.98 45 373.5 45C376.02 45 378 46.98 378 49.5C378 52.02 376.02 54 373.5 54ZM427.5 54C424.98 54 423 52.02 423 49.5C423 46.98 424.98 45 427.5 45C430.02 45 432 46.98 432 49.5C432 52.02 430.02 54 427.5 54ZM418.5 54C415.98 54 414 52.02 414 49.5C414 46.98 415.98 45 418.5 45C421.02 45 423 46.98 423 49.5C423 52.02 421.02 54 418.5 54ZM391.5 54C388.98 54 387 52.02 387 49.5C387 46.98 388.98 45 391.5 45C394.02 45 396 46.98 396 49.5C396 52.02 394.02 54 391.5 54ZM382.5 63C379.98 63 378 61.02 378 58.5C378 55.98 379.98 54 382.5 54C385.02 54 387 55.98 387 58.5C387 61.02 385.02 63 382.5 63ZM373.5 63C370.98 63 369 61.02 369 58.5C369 55.98 370.98 54 373.5 54C376.02 54 378 55.98 378 58.5C378 61.02 376.02 63 373.5 63ZM382.5 72C379.98 72 378 70.02 378 67.5C378 64.98 379.98 63 382.5 63C385.02 63 387 64.98 387 67.5C387 70.02 385.02 72 382.5 72ZM373.5 72C370.98 72 369 70.02 369 67.5C369 64.98 370.98 63 373.5 63C376.02 63 378 64.98 378 67.5C378 70.02 376.02 72 373.5 72ZM427.5 81C424.98 81 423 79.02 423 76.5C423 73.98 424.98 72 427.5 72C430.02 72 432 73.98 432 76.5C432 79.02 430.02 81 427.5 81ZM382.5 81C379.98 81 378 79.02 378 76.5C378 73.98 379.98 72 382.5 72C385.02 72 387 73.98 387 76.5C387 79.02 385.02 81 382.5 81ZM373.5 81C370.98 81 369 79.02 369 76.5C369 73.98 370.98 72 373.5 72C376.02 72 378 73.98 378 76.5C378 79.02 376.02 81 373.5 81ZM418.5 81C415.98 81 414 79.02 414 76.5C414 73.98 415.98 72 418.5 72C421.02 72 423 73.98 423 76.5C423 79.02 421.02 81 418.5 81ZM391.5 81C388.98 81 387 79.02 387 76.5C387 73.98 388.98 72 391.5 72C394.02 72 396 73.98 396 76.5C396 79.02 394.02 81 391.5 81ZM391.5 90C388.98 90 387 88.02 387 85.5C387 82.98 388.98 81 391.5 81C394.02 81 396 82.98 396 85.5C396 88.02 394.02 90 391.5 90ZM418.5 90C415.98 90 414 88.02 414 85.5C414 82.98 415.98 81 418.5 81C421.02 81 423 82.98 423 85.5C423 88.02 421.02 90 418.5 90ZM400.5 90C397.98 90 396 88.02 396 85.5C396 82.98 397.98 81 400.5 81C403.02 81 405 82.98 405 85.5C405 88.02 403.02 90 400.5 90ZM427.5 90C424.98 90 423 88.02 423 85.5C423 82.98 424.98 81 427.5 81C430.02 81 432 82.98 432 85.5C432 88.02 430.02 90 427.5 90ZM409.5 90C406.98 90 405 88.02 405 85.5C405 82.98 406.98 81 409.5 81C412.02 81 414 82.98 414 85.5C414 88.02 412.02 90 409.5 90ZM382.5 90C379.98 90 378 88.02 378 85.5C378 82.98 379.98 81 382.5 81C385.02 81 387 82.98 387 85.5C387 88.02 385.02 90 382.5 90ZM391.5 99C388.98 99 387 97.02 387 94.5C387 91.98 388.98 90 391.5 90C394.02 90 396 91.98 396 94.5C396 97.02 394.02 99 391.5 99ZM400.5 99C397.98 99 396 97.02 396 94.5C396 91.98 397.98 90 400.5 90C403.02 90 405 91.98 405 94.5C405 97.02 403.02 99 400.5 99ZM418.5 99C415.98 99 414 97.02 414 94.5C414 91.98 415.98 90 418.5 90C421.02 90 423 91.98 423 94.5C423 97.02 421.02 99 418.5 99ZM409.5 99C406.98 99 405 97.02 405 94.5C405 91.98 406.98 90 409.5 90C412.02 90 414 91.98 414 94.5C414 97.02 412.02 99 409.5 99ZM508.5 18C505.98 18 504 16.02 504 13.5C504 10.98 505.98 9 508.5 9C511.02 9 513 10.98 513 13.5C513 16.02 511.02 18 508.5 18ZM499.5 27C496.98 27 495 25.02 495 22.5C495 19.98 496.98 18 499.5 18C502.02 18 504 19.98 504 22.5C504 25.02 502.02 27 499.5 27ZM508.5 27C505.98 27 504 25.02 504 22.5C504 19.98 505.98 18 508.5 18C511.02 18 513 19.98 513 22.5C513 25.02 511.02 27 508.5 27ZM490.5 36C487.98 36 486 34.02 486 31.5C486 28.98 487.98 27 490.5 27C493.02 27 495 28.98 495 31.5C495 34.02 493.02 36 490.5 36ZM508.5 36C505.98 36 504 34.02 504 31.5C504 28.98 505.98 27 508.5 27C511.02 27 513 28.98 513 31.5C513 34.02 511.02 36 508.5 36ZM535.5 36C532.98 36 531 34.02 531 31.5C531 28.98 532.98 27 535.5 27C538.02 27 540 28.98 540 31.5C540 34.02 538.02 36 535.5 36ZM526.5 36C523.98 36 522 34.02 522 31.5C522 28.98 523.98 27 526.5 27C529.02 27 531 28.98 531 31.5C531 34.02 529.02 36 526.5 36ZM517.5 36C514.98 36 513 34.02 513 31.5C513 28.98 514.98 27 517.5 27C520.02 27 522 28.98 522 31.5C522 34.02 520.02 36 517.5 36ZM499.5 36C496.98 36 495 34.02 495 31.5C495 28.98 496.98 27 499.5 27C502.02 27 504 28.98 504 31.5C504 34.02 502.02 36 499.5 36ZM481.5 45C478.98 45 477 43.02 477 40.5C477 37.98 478.98 36 481.5 36C484.02 36 486 37.98 486 40.5C486 43.02 484.02 45 481.5 45ZM508.5 45C505.98 45 504 43.02 504 40.5C504 37.98 505.98 36 508.5 36C511.02 36 513 37.98 513 40.5C513 43.02 511.02 45 508.5 45ZM526.5 45C523.98 45 522 43.02 522 40.5C522 37.98 523.98 36 526.5 36C529.02 36 531 37.98 531 40.5C531 43.02 529.02 45 526.5 45ZM517.5 45C514.98 45 513 43.02 513 40.5C513 37.98 514.98 36 517.5 36C520.02 36 522 37.98 522 40.5C522 43.02 520.02 45 517.5 45ZM490.5 45C487.98 45 486 43.02 486 40.5C486 37.98 487.98 36 490.5 36C493.02 36 495 37.98 495 40.5C495 43.02 493.02 45 490.5 45ZM499.5 45C496.98 45 495 43.02 495 40.5C495 37.98 496.98 36 499.5 36C502.02 36 504 37.98 504 40.5C504 43.02 502.02 45 499.5 45ZM508.5 54C505.98 54 504 52.02 504 49.5C504 46.98 505.98 45 508.5 45C511.02 45 513 46.98 513 49.5C513 52.02 511.02 54 508.5 54ZM499.5 54C496.98 54 495 52.02 495 49.5C495 46.98 496.98 45 499.5 45C502.02 45 504 46.98 504 49.5C504 52.02 502.02 54 499.5 54ZM508.5 63C505.98 63 504 61.02 504 58.5C504 55.98 505.98 54 508.5 54C511.02 54 513 55.98 513 58.5C513 61.02 511.02 63 508.5 63ZM499.5 63C496.98 63 495 61.02 495 58.5C495 55.98 496.98 54 499.5 54C502.02 54 504 55.98 504 58.5C504 61.02 502.02 63 499.5 63ZM499.5 72C496.98 72 495 70.02 495 67.5C495 64.98 496.98 63 499.5 63C502.02 63 504 64.98 504 67.5C504 70.02 502.02 72 499.5 72ZM508.5 72C505.98 72 504 70.02 504 67.5C504 64.98 505.98 63 508.5 63C511.02 63 513 64.98 513 67.5C513 70.02 511.02 72 508.5 72ZM499.5 81C496.98 81 495 79.02 495 76.5C495 73.98 496.98 72 499.5 72C502.02 72 504 73.98 504 76.5C504 79.02 502.02 81 499.5 81ZM508.5 81C505.98 81 504 79.02 504 76.5C504 73.98 505.98 72 508.5 72C511.02 72 513 73.98 513 76.5C513 79.02 511.02 81 508.5 81ZM499.5 90C496.98 90 495 88.02 495 85.5C495 82.98 496.98 81 499.5 81C502.02 81 504 82.98 504 85.5C504 88.02 502.02 90 499.5 90ZM508.5 90C505.98 90 504 88.02 504 85.5C504 82.98 505.98 81 508.5 81C511.02 81 513 82.98 513 85.5C513 88.02 511.02 90 508.5 90ZM517.5 90C514.98 90 513 88.02 513 85.5C513 82.98 514.98 81 517.5 81C520.02 81 522 82.98 522 85.5C522 88.02 520.02 90 517.5 90ZM526.5 90C523.98 90 522 88.02 522 85.5C522 82.98 523.98 81 526.5 81C529.02 81 531 82.98 531 85.5C531 88.02 529.02 90 526.5 90ZM535.5 90C532.98 90 531 88.02 531 85.5C531 82.98 532.98 81 535.5 81C538.02 81 540 82.98 540 85.5C540 88.02 538.02 90 535.5 90ZM508.5 99C505.98 99 504 97.02 504 94.5C504 91.98 505.98 90 508.5 90C511.02 90 513 91.98 513 94.5C513 97.02 511.02 99 508.5 99ZM517.5 99C514.98 99 513 97.02 513 94.5C513 91.98 514.98 90 517.5 90C520.02 90 522 91.98 522 94.5C522 97.02 520.02 99 517.5 99ZM526.5 99C523.98 99 522 97.02 522 94.5C522 91.98 523.98 90 526.5 90C529.02 90 531 91.98 531 94.5C531 97.02 529.02 99 526.5 99ZM571.5 36C568.98 36 567 34.02 567 31.5C567 28.98 568.98 27 571.5 27C574.02 27 576 28.98 576 31.5C576 34.02 574.02 36 571.5 36ZM580.5 36C577.98 36 576 34.02 576 31.5C576 28.98 577.98 27 580.5 27C583.02 27 585 28.98 585 31.5C585 34.02 583.02 36 580.5 36ZM589.5 36C586.98 36 585 34.02 585 31.5C585 28.98 586.98 27 589.5 27C592.02 27 594 28.98 594 31.5C594 34.02 592.02 36 589.5 36ZM598.5 36C595.98 36 594 34.02 594 31.5C594 28.98 595.98 27 598.5 27C601.02 27 603 28.98 603 31.5C603 34.02 601.02 36 598.5 36ZM562.5 45C559.98 45 558 43.02 558 40.5C558 37.98 559.98 36 562.5 36C565.02 36 567 37.98 567 40.5C567 43.02 565.02 45 562.5 45ZM571.5 45C568.98 45 567 43.02 567 40.5C567 37.98 568.98 36 571.5 36C574.02 36 576 37.98 576 40.5C576 43.02 574.02 45 571.5 45ZM580.5 45C577.98 45 576 43.02 576 40.5C576 37.98 577.98 36 580.5 36C583.02 36 585 37.98 585 40.5C585 43.02 583.02 45 580.5 45ZM589.5 45C586.98 45 585 43.02 585 40.5C585 37.98 586.98 36 589.5 36C592.02 36 594 37.98 594 40.5C594 43.02 592.02 45 589.5 45ZM598.5 45C595.98 45 594 43.02 594 40.5C594 37.98 595.98 36 598.5 36C601.02 36 603 37.98 603 40.5C603 43.02 601.02 45 598.5 45ZM607.5 45C604.98 45 603 43.02 603 40.5C603 37.98 604.98 36 607.5 36C610.02 36 612 37.98 612 40.5C612 43.02 610.02 45 607.5 45ZM553.5 54C550.98 54 549 52.02 549 49.5C549 46.98 550.98 45 553.5 45C556.02 45 558 46.98 558 49.5C558 52.02 556.02 54 553.5 54ZM616.5 54C613.98 54 612 52.02 612 49.5C612 46.98 613.98 45 616.5 45C619.02 45 621 46.98 621 49.5C621 52.02 619.02 54 616.5 54ZM607.5 54C604.98 54 603 52.02 603 49.5C603 46.98 604.98 45 607.5 45C610.02 45 612 46.98 612 49.5C612 52.02 610.02 54 607.5 54ZM598.5 54C595.98 54 594 52.02 594 49.5C594 46.98 595.98 45 598.5 45C601.02 45 603 46.98 603 49.5C603 52.02 601.02 54 598.5 54ZM571.5 54C568.98 54 567 52.02 567 49.5C567 46.98 568.98 45 571.5 45C574.02 45 576 46.98 576 49.5C576 52.02 574.02 54 571.5 54ZM562.5 54C559.98 54 558 52.02 558 49.5C558 46.98 559.98 45 562.5 45C565.02 45 567 46.98 567 49.5C567 52.02 565.02 54 562.5 54ZM562.5 63C559.98 63 558 61.02 558 58.5C558 55.98 559.98 54 562.5 54C565.02 54 567 55.98 567 58.5C567 61.02 565.02 63 562.5 63ZM553.5 63C550.98 63 549 61.02 549 58.5C549 55.98 550.98 54 553.5 54C556.02 54 558 55.98 558 58.5C558 61.02 556.02 63 553.5 63ZM616.5 63C613.98 63 612 61.02 612 58.5C612 55.98 613.98 54 616.5 54C619.02 54 621 55.98 621 58.5C621 61.02 619.02 63 616.5 63ZM607.5 63C604.98 63 603 61.02 603 58.5C603 55.98 604.98 54 607.5 54C610.02 54 612 55.98 612 58.5C612 61.02 610.02 63 607.5 63ZM562.5 72C559.98 72 558 70.02 558 67.5C558 64.98 559.98 63 562.5 63C565.02 63 567 64.98 567 67.5C567 70.02 565.02 72 562.5 72ZM553.5 72C550.98 72 549 70.02 549 67.5C549 64.98 550.98 63 553.5 63C556.02 63 558 64.98 558 67.5C558 70.02 556.02 72 553.5 72ZM616.5 72C613.98 72 612 70.02 612 67.5C612 64.98 613.98 63 616.5 63C619.02 63 621 64.98 621 67.5C621 70.02 619.02 72 616.5 72ZM607.5 72C604.98 72 603 70.02 603 67.5C603 64.98 604.98 63 607.5 63C610.02 63 612 64.98 612 67.5C612 70.02 610.02 72 607.5 72ZM598.5 81C595.98 81 594 79.02 594 76.5C594 73.98 595.98 72 598.5 72C601.02 72 603 73.98 603 76.5C603 79.02 601.02 81 598.5 81ZM607.5 81C604.98 81 603 79.02 603 76.5C603 73.98 604.98 72 607.5 72C610.02 72 612 73.98 612 76.5C612 79.02 610.02 81 607.5 81ZM571.5 81C568.98 81 567 79.02 567 76.5C567 73.98 568.98 72 571.5 72C574.02 72 576 73.98 576 76.5C576 79.02 574.02 81 571.5 81ZM616.5 81C613.98 81 612 79.02 612 76.5C612 73.98 613.98 72 616.5 72C619.02 72 621 73.98 621 76.5C621 79.02 619.02 81 616.5 81ZM562.5 81C559.98 81 558 79.02 558 76.5C558 73.98 559.98 72 562.5 72C565.02 72 567 73.98 567 76.5C567 79.02 565.02 81 562.5 81ZM553.5 81C550.98 81 549 79.02 549 76.5C549 73.98 550.98 72 553.5 72C556.02 72 558 73.98 558 76.5C558 79.02 556.02 81 553.5 81ZM598.5 90C595.98 90 594 88.02 594 85.5C594 82.98 595.98 81 598.5 81C601.02 81 603 82.98 603 85.5C603 88.02 601.02 90 598.5 90ZM607.5 90C604.98 90 603 88.02 603 85.5C603 82.98 604.98 81 607.5 81C610.02 81 612 82.98 612 85.5C612 88.02 610.02 90 607.5 90ZM589.5 90C586.98 90 585 88.02 585 85.5C585 82.98 586.98 81 589.5 81C592.02 81 594 82.98 594 85.5C594 88.02 592.02 90 589.5 90ZM580.5 90C577.98 90 576 88.02 576 85.5C576 82.98 577.98 81 580.5 81C583.02 81 585 82.98 585 85.5C585 88.02 583.02 90 580.5 90ZM571.5 90C568.98 90 567 88.02 567 85.5C567 82.98 568.98 81 571.5 81C574.02 81 576 82.98 576 85.5C576 88.02 574.02 90 571.5 90ZM562.5 90C559.98 90 558 88.02 558 85.5C558 82.98 559.98 81 562.5 81C565.02 81 567 82.98 567 85.5C567 88.02 565.02 90 562.5 90ZM598.5 99C595.98 99 594 97.02 594 94.5C594 91.98 595.98 90 598.5 90C601.02 90 603 91.98 603 94.5C603 97.02 601.02 99 598.5 99ZM589.5 99C586.98 99 585 97.02 585 94.5C585 91.98 586.98 90 589.5 90C592.02 90 594 91.98 594 94.5C594 97.02 592.02 99 589.5 99ZM580.5 99C577.98 99 576 97.02 576 94.5C576 91.98 577.98 90 580.5 90C583.02 90 585 91.98 585 94.5C585 97.02 583.02 99 580.5 99ZM571.5 99C568.98 99 567 97.02 567 94.5C567 91.98 568.98 90 571.5 90C574.02 90 576 91.98 576 94.5C576 97.02 574.02 99 571.5 99ZM679.5 36C676.98 36 675 34.02 675 31.5C675 28.98 676.98 27 679.5 27C682.02 27 684 28.98 684 31.5C684 34.02 682.02 36 679.5 36ZM670.5 36C667.98 36 666 34.02 666 31.5C666 28.98 667.98 27 670.5 27C673.02 27 675 28.98 675 31.5C675 34.02 673.02 36 670.5 36ZM661.5 36C658.98 36 657 34.02 657 31.5C657 28.98 658.98 27 661.5 27C664.02 27 666 28.98 666 31.5C666 34.02 664.02 36 661.5 36ZM679.5 45C676.98 45 675 43.02 675 40.5C675 37.98 676.98 36 679.5 36C682.02 36 684 37.98 684 40.5C684 43.02 682.02 45 679.5 45ZM652.5 45C649.98 45 648 43.02 648 40.5C648 37.98 649.98 36 652.5 36C655.02 36 657 37.98 657 40.5C657 43.02 655.02 45 652.5 45ZM688.5 45C685.98 45 684 43.02 684 40.5C684 37.98 685.98 36 688.5 36C691.02 36 693 37.98 693 40.5C693 43.02 691.02 45 688.5 45ZM670.5 45C667.98 45 666 43.02 666 40.5C666 37.98 667.98 36 670.5 36C673.02 36 675 37.98 675 40.5C675 43.02 673.02 45 670.5 45ZM661.5 45C658.98 45 657 43.02 657 40.5C657 37.98 658.98 36 661.5 36C664.02 36 666 37.98 666 40.5C666 43.02 664.02 45 661.5 45ZM643.5 54C640.98 54 639 52.02 639 49.5C639 46.98 640.98 45 643.5 45C646.02 45 648 46.98 648 49.5C648 52.02 646.02 54 643.5 54ZM688.5 54C685.98 54 684 52.02 684 49.5C684 46.98 685.98 45 688.5 45C691.02 45 693 46.98 693 49.5C693 52.02 691.02 54 688.5 54ZM652.5 54C649.98 54 648 52.02 648 49.5C648 46.98 649.98 45 652.5 45C655.02 45 657 46.98 657 49.5C657 52.02 655.02 54 652.5 54ZM697.5 54C694.98 54 693 52.02 693 49.5C693 46.98 694.98 45 697.5 45C700.02 45 702 46.98 702 49.5C702 52.02 700.02 54 697.5 54ZM652.5 63C649.98 63 648 61.02 648 58.5C648 55.98 649.98 54 652.5 54C655.02 54 657 55.98 657 58.5C657 61.02 655.02 63 652.5 63ZM688.5 63C685.98 63 684 61.02 684 58.5C684 55.98 685.98 54 688.5 54C691.02 54 693 55.98 693 58.5C693 61.02 691.02 63 688.5 63ZM697.5 63C694.98 63 693 61.02 693 58.5C693 55.98 694.98 54 697.5 54C700.02 54 702 55.98 702 58.5C702 61.02 700.02 63 697.5 63ZM643.5 63C640.98 63 639 61.02 639 58.5C639 55.98 640.98 54 643.5 54C646.02 54 648 55.98 648 58.5C648 61.02 646.02 63 643.5 63ZM661.5 63C658.98 63 657 61.02 657 58.5C657 55.98 658.98 54 661.5 54C664.02 54 666 55.98 666 58.5C666 61.02 664.02 63 661.5 63ZM670.5 63C667.98 63 666 61.02 666 58.5C666 55.98 667.98 54 670.5 54C673.02 54 675 55.98 675 58.5C675 61.02 673.02 63 670.5 63ZM679.5 63C676.98 63 675 61.02 675 58.5C675 55.98 676.98 54 679.5 54C682.02 54 684 55.98 684 58.5C684 61.02 682.02 63 679.5 63ZM652.5 72C649.98 72 648 70.02 648 67.5C648 64.98 649.98 63 652.5 63C655.02 63 657 64.98 657 67.5C657 70.02 655.02 72 652.5 72ZM661.5 72C658.98 72 657 70.02 657 67.5C657 64.98 658.98 63 661.5 63C664.02 63 666 64.98 666 67.5C666 70.02 664.02 72 661.5 72ZM670.5 72C667.98 72 666 70.02 666 67.5C666 64.98 667.98 63 670.5 63C673.02 63 675 64.98 675 67.5C675 70.02 673.02 72 670.5 72ZM679.5 72C676.98 72 675 70.02 675 67.5C675 64.98 676.98 63 679.5 63C682.02 63 684 64.98 684 67.5C684 70.02 682.02 72 679.5 72ZM688.5 72C685.98 72 684 70.02 684 67.5C684 64.98 685.98 63 688.5 63C691.02 63 693 64.98 693 67.5C693 70.02 691.02 72 688.5 72ZM697.5 72C694.98 72 693 70.02 693 67.5C693 64.98 694.98 63 697.5 63C700.02 63 702 64.98 702 67.5C702 70.02 700.02 72 697.5 72ZM643.5 72C640.98 72 639 70.02 639 67.5C639 64.98 640.98 63 643.5 63C646.02 63 648 64.98 648 67.5C648 70.02 646.02 72 643.5 72ZM652.5 81C649.98 81 648 79.02 648 76.5C648 73.98 649.98 72 652.5 72C655.02 72 657 73.98 657 76.5C657 79.02 655.02 81 652.5 81ZM643.5 81C640.98 81 639 79.02 639 76.5C639 73.98 640.98 72 643.5 72C646.02 72 648 73.98 648 76.5C648 79.02 646.02 81 643.5 81ZM652.5 90C649.98 90 648 88.02 648 85.5C648 82.98 649.98 81 652.5 81C655.02 81 657 82.98 657 85.5C657 88.02 655.02 90 652.5 90ZM661.5 90C658.98 90 657 88.02 657 85.5C657 82.98 658.98 81 661.5 81C664.02 81 666 82.98 666 85.5C666 88.02 664.02 90 661.5 90ZM670.5 90C667.98 90 666 88.02 666 85.5C666 82.98 667.98 81 670.5 81C673.02 81 675 82.98 675 85.5C675 88.02 673.02 90 670.5 90ZM679.5 90C676.98 90 675 88.02 675 85.5C675 82.98 676.98 81 679.5 81C682.02 81 684 82.98 684 85.5C684 88.02 682.02 90 679.5 90ZM688.5 90C685.98 90 684 88.02 684 85.5C684 82.98 685.98 81 688.5 81C691.02 81 693 82.98 693 85.5C693 88.02 691.02 90 688.5 90ZM697.5 90C694.98 90 693 88.02 693 85.5C693 82.98 694.98 81 697.5 81C700.02 81 702 82.98 702 85.5C702 88.02 700.02 90 697.5 90ZM661.5 99C658.98 99 657 97.02 657 94.5C657 91.98 658.98 90 661.5 90C664.02 90 666 91.98 666 94.5C666 97.02 664.02 99 661.5 99ZM670.5 99C667.98 99 666 97.02 666 94.5C666 91.98 667.98 90 670.5 90C673.02 90 675 91.98 675 94.5C675 97.02 673.02 99 670.5 99ZM679.5 99C676.98 99 675 97.02 675 94.5C675 91.98 676.98 90 679.5 90C682.02 90 684 91.98 684 94.5C684 97.02 682.02 99 679.5 99ZM688.5 99C685.98 99 684 97.02 684 94.5C684 91.98 685.98 90 688.5 90C691.02 90 693 91.98 693 94.5C693 97.02 691.02 99 688.5 99Z" fill="white"/>
</svg>
